<svg width="24" height="24" viewBox="0 0 24 24" fill="none" xmlns="http://www.w3.org/2000/svg">
<path d="M21.7135 12.0665L16.2536 13.5993L19.702 18.1039C19.8834 18.3045 19.9872 18.5577 19.9964 18.8219C19.9954 18.9376 19.9632 19.051 19.9031 19.1516C19.8429 19.2521 19.7567 19.3364 19.6527 19.3964L16.5543 21.5988C16.4115 21.6987 16.2383 21.7517 16.061 21.75C15.8986 21.7369 15.742 21.6865 15.6048 21.603C15.4675 21.5195 15.3537 21.4055 15.2733 21.2708L12.0285 16.624L8.78217 21.2708C8.7022 21.4058 8.5885 21.5201 8.45116 21.6037C8.31381 21.6872 8.15702 21.7374 7.99446 21.75C7.8176 21.7517 7.64494 21.6987 7.5027 21.5988L4.35506 19.3964C4.2509 19.3363 4.16449 19.2521 4.10408 19.1516C4.04366 19.0511 4.01117 18.9377 4.00967 18.8219C4.01976 18.5579 4.1235 18.3049 4.30406 18.1039L7.74775 13.6008L2.33721 12.068C1.89482 11.9259 1.50171 11.6372 1.50171 11.2532C1.49414 11.1706 1.51179 11.0877 1.55261 11.0144L2.78274 7.37441C2.81113 7.2355 2.89094 7.11083 3.00769 7.02294C3.12444 6.93505 3.27046 6.88974 3.41932 6.89522C3.60291 6.90425 3.78435 6.93679 3.95877 6.99196L9.4171 8.7636L9.27073 3.25522V3.20837C9.27073 2.68082 9.51582 2.25 10.0569 2.25H13.9922C14.5333 2.25 14.7306 2.6808 14.7306 3.25522L14.6813 8.7636L20.041 6.99196C20.216 6.9368 20.3979 6.90426 20.582 6.89522C20.7308 6.89005 20.8767 6.93547 20.9934 7.0233C21.11 7.11114 21.1899 7.23564 21.2186 7.37441L22.4487 11.0144C22.4854 11.089 22.5029 11.1709 22.4996 11.2532C22.5012 11.684 22.1559 11.9244 21.7135 12.0665Z" fill="#377DFF"/>
</svg>
