<svg width="21" height="28" viewBox="0 0 21 28" fill="none" xmlns="http://www.w3.org/2000/svg">
<path d="M0.858702 16.0803C0.476411 15.4137 0.957696 14.5829 1.72619 14.5829H4.85708C5.21571 14.5829 5.54688 14.7749 5.72501 15.0862L12.0198 26.0862C12.4013 26.7528 11.92 27.5828 11.1519 27.5828H8.03401C7.6757 27.5828 7.34477 27.3911 7.16652 27.0803L0.858702 16.0803Z" fill="#2781F8"/>
<path d="M20.14 16.0808C20.5228 15.4141 20.0415 14.5829 19.2728 14.5829H16.1423C15.784 14.5829 15.4531 14.7746 15.2748 15.0854L11.6679 21.3747C11.4919 21.6816 11.4911 22.0587 11.666 22.3664L13.2214 25.1029C13.6038 25.7757 14.5727 25.7778 14.958 25.1067L20.14 16.0808Z" fill="#006BFF"/>
<path d="M20.1413 11.5025C20.5236 12.1692 20.0423 13 19.2738 13L16.1429 13C15.7843 13 15.4531 12.808 15.275 12.4967L8.98018 1.49673C8.59868 0.830068 9.08002 4.66416e-05 9.84812 4.67088e-05L12.966 4.69814e-05C13.3243 4.70127e-05 13.6552 0.191758 13.8335 0.502593L20.1413 11.5025Z" fill="#29D87A"/>
<path d="M0.859991 11.5021C0.47724 12.1688 0.958497 13 1.72722 13L4.8577 13C5.216 13 5.54692 12.8083 5.72517 12.4975L9.33212 6.20816C9.50814 5.90124 9.50887 5.52414 9.33404 5.21653L7.77864 2.47996C7.39624 1.80716 6.42734 1.80506 6.04202 2.4762L0.859991 11.5021Z" fill="#17B569"/>
</svg>
