<svg width="112" height="18" viewBox="0 0 112 18" fill="none" xmlns="http://www.w3.org/2000/svg">
<path d="M89.0969 18.0001L83.0086 10.4926V18.0001H79.9197V0.000366211H86.8809C90.2384 0.000366211 92.6558 2.52584 92.6558 6.13039C92.6558 9.34463 90.6861 11.5716 87.8434 11.9849L92.8797 18.0001H89.0969ZM83.0086 9.48238H86.5676C88.4254 9.48238 89.4998 8.05893 89.4998 6.13039C89.4998 4.20184 88.4254 2.80135 86.5676 2.80135H83.0086V9.48238Z" fill="#10131F"/>
<path d="M53.962 12.2374H52.8231V18.0001H49.6799V0.000366211H56.7635C60.18 0.000366211 62.6399 2.52584 62.6399 6.13039C62.6399 9.73493 60.18 12.2374 56.7635 12.2374H53.962ZM52.8231 2.75543V9.48238H56.4446C58.3351 9.48238 59.4284 8.05893 59.4284 6.13039C59.4284 4.20184 58.3351 2.75543 56.4446 2.75543H52.8231Z" fill="#10131F"/>
<path d="M41.9625 10.5615L39.1491 9.89564C36.4971 9.27575 35.0213 7.462 35.0213 5.0054C35.0213 2.13554 37.0506 0.000366211 40.7864 0.000366211H47.2895L46.344 2.80135H40.8325C39.1491 2.80135 38.2036 3.60491 38.2036 4.82173C38.2036 5.92376 38.8493 6.72732 40.6711 7.16354L43.4845 7.82934C46.2056 8.47219 47.5201 10.2171 47.5201 12.7885C47.5201 16.0257 45.3985 18.0001 41.4552 18.0001H34.5601L35.5055 15.1991H41.2707C43.3231 15.1991 44.3377 14.2578 44.3377 12.9492C44.3377 11.8701 43.7612 10.9977 41.9625 10.5615Z" fill="#10131F"/>
<path d="M31.7081 7.80638V10.5615H23.7753H22.6223V15.2451H32.3999V18.0001H19.4399V0.000366211H32.1693V2.75543H22.6223V7.80638H31.7081Z" fill="#10131F"/>
<path d="M77.068 7.80638V10.5615H69.1352H67.9822V15.2451H77.7598V18.0001H64.7998V0.000366211H77.5292V2.75543H67.9822V7.80638H77.068Z" fill="#10131F"/>
<path d="M3.64258 0.105835L9 11.7181L14.3818 0.104858L14.4316 0.000366211H18L9.36328 17.6801L9.31348 17.7826H8.71094L0.126953 0.262085L0 0.000366211H3.59375L3.64258 0.105835Z" fill="#10131F"/>
<path d="M107.958 17.6768L102.6 6.06445L97.2183 17.6777L97.1685 17.7822L93.6001 17.7822L102.237 0.102538L102.287 -8.14199e-07L102.889 -7.61524e-07L111.473 17.5205L111.6 17.7822L108.006 17.7822L107.958 17.6768Z" fill="#10131F"/>
</svg>
