<svg width="24" height="24" viewBox="0 0 24 24" fill="none" xmlns="http://www.w3.org/2000/svg">
<path fill-rule="evenodd" clip-rule="evenodd" d="M13.125 4.125C13.125 4.74632 12.6213 5.25 12 5.25C11.3787 5.25 10.875 4.74632 10.875 4.125C10.875 3.50368 11.3787 3 12 3C12.6213 3 13.125 3.50368 13.125 4.125ZM17.625 7.5C18.2463 7.5 18.75 6.99632 18.75 6.375C18.75 5.75368 18.2463 5.25 17.625 5.25C17.0037 5.25 16.5 5.75368 16.5 6.375C16.5 6.99632 17.0037 7.5 17.625 7.5ZM17.625 12C17.625 15.1066 15.1066 17.625 12 17.625C8.8934 17.625 6.375 15.1066 6.375 12C6.375 8.8934 8.8934 6.375 12 6.375C15.1066 6.375 17.625 8.8934 17.625 12ZM13.125 19.875C13.125 20.4963 12.6213 21 12 21C11.3787 21 10.875 20.4963 10.875 19.875C10.875 19.2537 11.3787 18.75 12 18.75C12.6213 18.75 13.125 19.2537 13.125 19.875ZM17.625 18.75C18.2463 18.75 18.75 18.2463 18.75 17.625C18.75 17.0037 18.2463 16.5 17.625 16.5C17.0037 16.5 16.5 17.0037 16.5 17.625C16.5 18.2463 17.0037 18.75 17.625 18.75ZM21 12C21 12.6213 20.4963 13.125 19.875 13.125C19.2537 13.125 18.75 12.6213 18.75 12C18.75 11.3787 19.2537 10.875 19.875 10.875C20.4963 10.875 21 11.3787 21 12ZM6.375 7.5C6.99632 7.5 7.5 6.99632 7.5 6.375C7.5 5.75368 6.99632 5.25 6.375 5.25C5.75368 5.25 5.25 5.75368 5.25 6.375C5.25 6.99632 5.75368 7.5 6.375 7.5ZM5.25 12C5.25 12.6213 4.74632 13.125 4.125 13.125C3.50368 13.125 3 12.6213 3 12C3 11.3787 3.50368 10.875 4.125 10.875C4.74632 10.875 5.25 11.3787 5.25 12ZM6.375 18.75C6.99632 18.75 7.5 18.2463 7.5 17.625C7.5 17.0037 6.99632 16.5 6.375 16.5C5.75368 16.5 5.25 17.0037 5.25 17.625C5.25 18.2463 5.75368 18.75 6.375 18.75Z" fill="#10131F"/>
</svg>
